<?xml version="1.0" standalone="no"?>
<!DOCTYPE svg PUBLIC "-//W3C//DTD SVG 20010904//EN"
 "http://www.w3.org/TR/2001/REC-SVG-20010904/DTD/svg10.dtd">
<svg version="1.0" xmlns="http://www.w3.org/2000/svg"
 width="383.000000pt" height="383.000000pt" viewBox="0 0 383.000000 383.000000"
 preserveAspectRatio="xMidYMid meet">
<metadata>
Created by potrace 1.11, written by Peter Selinger 2001-2013
</metadata>
<g transform="translate(0.000000,383.000000) scale(0.100000,-0.100000)"
fill="#000000" stroke="none">
<path d="M1690 3819 c-450 -51 -898 -283 -1202 -624 -267 -298 -433 -671 -479
-1075 -16 -145 -7 -414 20 -559 151 -807 797 -1427 1612 -1546 135 -19 410
-19 546 0 632 90 1173 484 1454 1060 69 143 120 292 155 458 32 151 44 448 25
604 -82 662 -478 1217 -1072 1502 -208 100 -405 157 -621 180 -112 13 -328 12
-438 0z m400 -49 c719 -75 1323 -540 1574 -1212 348 -932 -116 -1988 -1040
-2368 -1067 -438 -2277 193 -2528 1321 -161 724 119 1459 725 1909 353 262
835 395 1269 350z"/>
<path d="M1740 3609 c-266 -25 -540 -125 -772 -279 -399 -265 -662 -679 -740
-1165 -19 -119 -16 -418 6 -540 133 -740 717 -1302 1456 -1401 269 -35 571 -2
825 93 110 40 291 137 395 211 121 86 306 270 392 392 304 428 395 973 248
1477 -173 595 -663 1050 -1271 1182 -174 37 -357 48 -539 30z"/>
</g>
</svg>
